<?xml version="1.0" encoding="UTF-8"?>
<svg width="120px" height="177px" viewBox="0 0 120 177" version="1.1" xmlns="http://www.w3.org/2000/svg" xmlns:xlink="http://www.w3.org/1999/xlink">
    <!-- Generator: Sketch 39.1 (31720) - http://www.bohemiancoding.com/sketch -->
    <title>red-octopus</title>
    <desc>Created with Sketch.</desc>
    <defs></defs>
    <g id="Page-1" stroke="none" stroke-width="1" fill="none" fill-rule="evenodd">
        <g id="red-octopus" transform="translate(1.000000, 1.000000)">
            <g id="octopus" transform="translate(59.000000, 88.000000) rotate(90.000000) translate(-59.000000, -88.000000) translate(-29.000000, 29.000000)">
                <path d="M58.2,117.7 L58.2,0.1 L167.7,0.1 L167.7,117.7 L58.2,117.7 M58.2,0.1 C54.2304024,0.254358844 50.2819667,0.756278635 46.4,1.6 C39.7884769,3.18442459 33.4974091,5.89026022 27.8,9.6 C11.1750775,20.7810539 0.941889446,39.2752156 0.3,59.3 C0.359172767,61.1002697 0.425840012,62.9002853 0.5,64.7 C1.35686719,74.1367378 4.62850901,83.1940199 10,91 C19.4129737,105.088506 34.2697822,114.618605 51,117.3 C53.0243454,117.546317 55.0608235,117.679857 57.1,117.7 L58.1,117.7 L58.1,0.1" id="Shape" stroke="#BC4655" fill="#BC4655"></path>
                <path d="M29.8,88 C30.1510715,86.2375935 30.6187667,84.5004399 31.2,82.8 C34.5709781,73.8448789 42.6885564,67.5440919 52.2,66.5 C55.6252744,66.0690188 59.1031162,66.3758872 62.4,67.4 C66.220905,68.5457288 69.7391738,70.5268899 72.7,73.2 C78.0224542,78.1804847 80.9381503,85.2146015 80.7,92.5 C80.5894608,96.0904725 79.773992,99.6241705 78.3,102.9 C76.4966931,106.615809 73.8619534,109.866462 70.6,112.4 C67.4956569,114.795651 63.8596631,116.407837 60,117.1 C50.2240782,119.048336 40.2121957,115.098336 34.4,107 C32.1992292,103.917424 30.6665081,100.409196 29.9,96.7 C29.4187587,93.7864047 29.4187587,90.8135953 29.9,87.9 L29.9,87.8 L29.9,88 M30.2,22 C30.5631352,20.2404376 31.0306276,18.504037 31.6,16.8 C32.8998175,13.4891862 34.836368,10.4654494 37.3,7.9 C45.7605711,-0.556045608 58.9239691,-2.08763594 69.1,4.2 C79.9189464,11.0004697 84.1297035,24.6960635 79,36.4 C77.2513572,40.1778457 74.6497687,43.4982942 71.4,46.1 C68.3047567,48.5096055 64.7216493,50.2158471 60.9,51.1 C56.6798238,51.9215984 52.3239208,51.7158077 48.2,50.5 C45.0647394,49.6313868 42.1388114,48.1344004 39.6,46.1 C37.3359957,44.2141975 35.3792502,41.9875561 33.8,39.5 C30.4979243,34.2299219 29.21887,27.9412386 30.2,21.8 L30.2,21.7 L30.2,21.9" id="Shape" stroke="#F6F7EF" fill="#F6F7EF"></path>
                <path d="M39.3,91.4 C39.3942989,90.2571991 39.5613037,89.121566 39.8,88 C40.3838645,85.5075729 41.5877582,83.2029764 43.3,81.3 C44.8624144,79.5407935 46.8143116,78.1710411 49,77.3 C50.3982602,76.6999653 51.8838717,76.3285625 53.4,76.2 C56.732117,75.8101804 60.1007658,76.5119822 63,78.2 C65.4273245,79.6008932 67.4578218,81.5969752 68.9,84 C70.0268181,85.9251635 70.7100713,88.0774113 70.9,90.3 C71.4427093,95.5238897 69.3871451,100.681487 65.4,104.1 C59.1207182,109.418594 49.81054,109.027045 44,103.2 C41.4762086,100.697019 39.8577408,97.424899 39.4,93.9 L39.4,93.7 L39.3,91.4" id="Shape" stroke="#494445" fill="#494445"></path>
                <path d="M39.7,25.4 C39.790022,24.2567127 39.9570679,23.1208005 40.2,22 C40.6259178,20.420635 41.2651354,18.9066986 42.1,17.5 C42.83451,16.3040243 43.7446859,15.2252972 44.8,14.3 C46.6529541,12.530063 48.9232932,11.2572971 51.4,10.6 C53.6781343,9.9562529 56.0751419,9.85352401 58.4,10.3 C61.994985,10.928495 65.252912,12.8053442 67.6,15.6 C70.1421987,18.5370018 71.4972179,22.3167922 71.4,26.2 C71.3124683,30.7829895 69.2755765,35.1113845 65.8,38.1 C64.4142405,39.283555 62.8204856,40.1991163 61.1,40.8 C58.6225542,41.773393 55.9340229,42.0836081 53.3,41.7 C46.2028071,40.6708486 40.6729395,35.018095 39.8,27.9 L39.8,27.7 L39.7,25.4" id="Shape" stroke="#494445" fill="#494445"></path>
                <path d="M167.7,117.7 C168.077956,117.643704 168.42819,117.468588 168.7,117.2 L169,116.8 L169.4,116 C169.830715,115.173998 170.166199,114.301738 170.4,113.4 C171.10658,111.217985 171.608741,108.974997 171.9,106.7 C172.821972,101.743915 173.423221,96.7335082 173.7,91.7 C174.68263,81.0627393 175.116539,70.3819144 175,59.7 C174.920867,47.6175371 174.387156,35.5423293 173.4,23.5 C172.812818,17.838489 172.012249,12.2011464 171,6.6 C170.709405,5.38853618 170.375861,4.18777886 170,3 L169.8,2.5 L169.7,2.2 C169.47107,1.7127586 169.203551,1.24460039 168.9,0.8 C168.778009,0.655787021 168.644213,0.521990723 168.5,0.4 C168.376056,0.316009899 168.241559,0.248761487 168.1,0.2 C168.033501,0.193316583 167.966499,0.193316583 167.9,0.2 L167.9,117.7" id="Shape" stroke="#BC4655" fill="#BC4655"></path>
            </g>
        </g>
    </g>
</svg>