<?xml version="1.0" encoding="UTF-8"?>
<svg width="159px" height="247px" viewBox="0 0 159 247" version="1.1" xmlns="http://www.w3.org/2000/svg" xmlns:xlink="http://www.w3.org/1999/xlink">
    <!-- Generator: Sketch 39.1 (31720) - http://www.bohemiancoding.com/sketch -->
    <title>red-octopus</title>
    <desc>Created with Sketch.</desc>
    <defs></defs>
    <g id="octopus" stroke="none" stroke-width="1" fill="none" fill-rule="evenodd">
        <g id="red-octopus" transform="translate(-450.000000, -236.000000)">
            <g transform="translate(450.000000, 236.000000)">
                <path d="M158.703216,82.4768963 C158.703265,82.4410112 158.703289,82.4051205 158.703289,82.3692241 C158.703289,39.2565861 123.27302,0 79.5675676,0 C35.8621152,0 0.431845686,39.2565861 0.431845686,82.3692241 C0.431845686,82.4051205 0.431870248,82.4410112 0.431919356,82.4768963 L0.431845686,238.601569 L158.703289,238.601569 L158.703289,82.4768963 Z M0.0391455258,238.601569 L159.09599,238.601569 C133.45975,244.10335 106.852842,247 79.5675676,247 C52.2822934,247 25.6753854,244.10335 0.0391455258,238.601569 Z" id="body" fill="#BC4655"></path>
                <g id="leye" transform="translate(0.431846, 47.591107)">
                    <ellipse id="yanbai" fill="#F6F7EF" cx="35.9511533" cy="35.8548387" rx="35.9511533" ry="35.8548387"></ellipse>
                    <ellipse id="yanzhu" fill="#494445" cx="36.072201" cy="35.9755621" rx="23.4832449" ry="23.4203324"></ellipse>
                </g>
                <g id="reye" transform="translate(86.800983, 47.591107)">
                    <ellipse id="yanbai" fill="#F6F7EF" cx="35.9511533" cy="35.8548387" rx="35.9511533" ry="35.8548387"></ellipse>
                    <ellipse id="yanzhu" fill="#494445" cx="36.072201" cy="36.2170088" rx="23.4832449" ry="23.4203324"></ellipse>
                </g>
            </g>
        </g>
    </g>
</svg>