<?xml version="1.0" encoding="utf-8"?>
<!-- Generator: Adobe Illustrator 19.0.0, SVG Export Plug-In . SVG Version: 6.00 Build 0)  -->
<svg version="1.1" xmlns="http://www.w3.org/2000/svg" xmlns:xlink="http://www.w3.org/1999/xlink" x="0px" y="0px"
	 viewBox="0 0 1000 1000" style="enable-background:new 0 0 1000 1000;" xml:space="preserve">
<style type="text/css">
	.st0{fill:#040000;}
	.st1{fill:#EB6022;}
	.st2{fill:none;stroke:#000000;stroke-width:9;stroke-miterlimit:10;}
	.st3{fill:none;stroke:#000000;stroke-width:7;stroke-miterlimit:10;}
	.st4{fill:#EFEA3A;}
	.st5{fill:#F5EEBE;}
	.st6{fill:#FFFDF3;}
	.st7{fill:#4CB8EB;}
	.st8{fill:#7D7EBB;}
	.st9{fill:#90B2C6;}
	.st10{fill:#D8DD5A;}
	.st11{fill:#CAC51C;}
	.st12{fill:#2A3032;}
</style>
<g id="图层_3">
	<path id="XMLID_2_" class="st0" d="M208.5,405.4v22.7h-18.8v-22.7H186c-13.2,0-23.9,10.7-23.9,23.9v0c0,10.5,6.7,19.4,16.1,22.6
		v99.2c0,10.5,8.5,19,19,19s19-8.5,19-19v-99.2c9.4-3.2,16.1-12.1,16.1-22.6v0C232.4,416.1,221.7,405.4,208.5,405.4z"/>
</g>
<g id="图层_2">
	<g id="XMLID_28_">
		<path id="XMLID_23_" class="st1" d="M924.1,365.2c-37.2,0-67.4,30.2-67.4,67.4s30.2,67.4,67.4,67.4c37.2,0,67.4-30.2,67.4-67.4
			S961.3,365.2,924.1,365.2z M924.1,473.4c-22.5,0-40.8-18.3-40.8-40.8s18.3-40.8,40.8-40.8c22.5,0,40.8,18.3,40.8,40.8
			S946.6,473.4,924.1,473.4z"/>
		<line id="XMLID_11_" class="st2" x1="924.1" y1="381.5" x2="924.1" y2="391.8"/>
		<line id="XMLID_13_" class="st2" x1="975.1" y1="432.6" x2="964.9" y2="432.6"/>
		<line id="XMLID_25_" class="st2" x1="883.2" y1="432.6" x2="872.9" y2="432.6"/>
		<line id="XMLID_24_" class="st2" x1="924.1" y1="473.6" x2="924.1" y2="483.8"/>
		<line id="XMLID_16_" class="st3" x1="924.1" y1="406.4" x2="924.1" y2="434.9"/>
		<line id="XMLID_26_" class="st2" x1="923.9" y1="432" x2="908.1" y2="436.2"/>
		<rect id="XMLID_27_" x="906.8" y="354.8" class="st4" width="34.5" height="16.7"/>
	</g>
	<g id="XMLID_9_">
		<path id="XMLID_4_" class="st5" d="M99.3,771.5H88.4c-7.1,0-12.8-5.7-12.8-12.8v-7.2c0-7.1,5.7-12.8,12.8-12.8h10.9
			c7.1,0,12.8,5.7,12.8,12.8v7.2C112.1,765.7,106.4,771.5,99.3,771.5z"/>
		<polygon id="XMLID_6_" class="st6" points="112.1,624.2 75.6,624.3 93.8,592.6 		"/>
		<rect id="XMLID_5_" x="75.5" y="623" class="st7" width="36.6" height="128.2"/>
		<rect id="XMLID_7_" x="89.2" y="592.6" class="st5" width="9.2" height="10.9"/>
	</g>
	<path id="XMLID_20_" class="st8" d="M664.5,510.5l66.8,175.2l91-34.7L664.5,510.5z M721.3,596.2l54,48l-31.1,11.9L721.3,596.2z"/>
	<path id="body" class="st9" d="M496.3,581.4L496.3,581.4c-82.8,0-150,58.6-150,130.8v232.2l299.9-1.4V712.2
		C646.3,640,579.2,581.4,496.3,581.4z"/>
	<g id="hat">
		<polygon id="XMLID_8_" class="st10" points="574.1,383.5 447.5,586.4 603.1,618.5 		"/>
		<g id="XMLID_30_">
			<polygon id="XMLID_32_" class="st11" points="501.8,499.4 493.1,513.3 592.6,533.6 590.7,517.5 			"/>
			<polygon id="XMLID_38_" class="st11" points="473.3,545 464.7,558.9 599.2,586.3 597.2,570.2 			"/>
			<polygon id="XMLID_39_" class="st11" points="530.2,453.9 521.5,467.8 586.1,480.9 584.2,464.9 			"/>
			<polygon id="XMLID_40_" class="st11" points="558.6,408.3 549.9,422.2 579.6,428.3 577.6,412.2 			"/>
		</g>
	</g>
	<path id="XMLID_14_" class="st9" d="M197.2,712.9C197.2,712.9,197.2,712.8,197.2,712.9L197.2,712.9c0-0.3,0-0.6,0-0.8
		c0-0.3,0-0.5,0-0.8c0-0.3,0-0.5-0.1-0.8c0-0.3,0-0.5-0.1-0.8c0-0.3-0.1-0.5-0.1-0.8c0-0.3-0.1-0.5-0.1-0.8c0-0.3-0.1-0.5-0.1-0.8
		c0-0.3-0.1-0.5-0.1-0.8c-0.1-0.3-0.1-0.5-0.2-0.8c-0.1-0.2-0.1-0.5-0.2-0.7c-0.1-0.3-0.1-0.5-0.2-0.8c-0.1-0.2-0.1-0.5-0.2-0.7
		c-0.1-0.3-0.2-0.5-0.3-0.8c-0.1-0.2-0.1-0.4-0.2-0.6c-0.1-0.3-0.2-0.5-0.3-0.8c-0.1-0.2-0.2-0.4-0.2-0.6c-0.1-0.3-0.2-0.5-0.4-0.8
		c-0.1-0.2-0.2-0.4-0.3-0.6c-0.1-0.3-0.3-0.5-0.4-0.8c-0.1-0.2-0.2-0.4-0.3-0.5c-0.1-0.3-0.3-0.5-0.5-0.8c-0.1-0.2-0.2-0.3-0.3-0.5
		c-0.2-0.3-0.3-0.5-0.5-0.8c-0.1-0.2-0.2-0.3-0.3-0.5c-0.2-0.3-0.4-0.5-0.5-0.8c-0.1-0.2-0.2-0.3-0.3-0.5c-0.2-0.2-0.4-0.5-0.6-0.7
		c-0.1-0.1-0.2-0.3-0.3-0.4c-0.2-0.2-0.4-0.5-0.6-0.7c-0.1-0.1-0.2-0.3-0.4-0.4c-0.2-0.2-0.4-0.5-0.6-0.7c-0.1-0.1-0.3-0.3-0.4-0.4
		c-0.2-0.2-0.5-0.4-0.7-0.6c-0.1-0.1-0.3-0.3-0.4-0.4c-0.2-0.2-0.5-0.4-0.7-0.6c-0.1-0.1-0.3-0.2-0.4-0.4c-0.2-0.2-0.5-0.4-0.7-0.6
		c-0.1-0.1-0.3-0.2-0.4-0.3c-0.2-0.2-0.5-0.4-0.8-0.5c-0.2-0.1-0.3-0.2-0.5-0.3c-0.3-0.2-0.5-0.3-0.8-0.5c-0.2-0.1-0.3-0.2-0.5-0.3
		c-0.3-0.2-0.5-0.3-0.8-0.5c-0.2-0.1-0.3-0.2-0.5-0.3c-0.3-0.2-0.6-0.3-0.9-0.4c-0.2-0.1-0.3-0.2-0.5-0.2c-0.3-0.1-0.6-0.3-0.9-0.4
		c-0.2-0.1-0.3-0.1-0.5-0.2c-0.3-0.1-0.6-0.2-0.9-0.4c-0.2-0.1-0.3-0.1-0.5-0.2c-0.3-0.1-0.6-0.2-1-0.3c-0.2-0.1-0.3-0.1-0.5-0.2
		c-0.3-0.1-0.7-0.2-1-0.3c-0.2,0-0.3-0.1-0.5-0.1c-0.3-0.1-0.7-0.2-1-0.2c-0.2,0-0.3-0.1-0.5-0.1c-0.4-0.1-0.7-0.1-1.1-0.2
		c-0.2,0-0.3-0.1-0.5-0.1c-0.4-0.1-0.7-0.1-1.1-0.1c-0.2,0-0.3,0-0.5-0.1c-0.4,0-0.7-0.1-1.1-0.1c-0.2,0-0.3,0-0.5,0
		c-0.4,0-0.7,0-1.1,0c-0.2,0-0.3,0-0.5,0h0c0,0,0,0-0.1,0c0,0-0.1,0-0.1,0l-102.2,0.6c-17.1,0.1-30.9,14.1-30.8,31.2v0
		c0.1,17.1,14.1,30.9,31.2,30.8l71-0.4v163.7c0,17.1,13.9,31,31,31h0c17.1,0,31-13.9,31-31L197.2,712.9
		C197.2,713,197.2,712.9,197.2,712.9z"/>
	<path id="XMLID_12_" class="st9" d="M968.8,464.8l-96,0.6c-1.9-0.4-3.9-0.6-6-0.6h0c-17.1,0-31,14.1-31,31.5v416.6
		c0,17.4,13.9,31.5,31,31.5h0c17.1,0,31-14.1,31-31.5V528.2l71.4-0.4c17.1-0.1,30.9-14.3,30.8-31.7v0
		C999.9,478.7,985.9,464.7,968.8,464.8z"/>
	<path id="XMLID_3_" class="st9" d="M304.4,518.7C304.4,518.6,304.4,518.6,304.4,518.7L304.4,518.7c0-0.3,0-0.6,0-0.8
		c0-0.3,0-0.5,0-0.8c0-0.3,0-0.5-0.1-0.8c0-0.3,0-0.5-0.1-0.8c0-0.2-0.1-0.5-0.1-0.7c0-0.3-0.1-0.5-0.1-0.8c0-0.2-0.1-0.5-0.1-0.7
		c0-0.3-0.1-0.5-0.1-0.8c-0.1-0.2-0.1-0.5-0.2-0.7c-0.1-0.3-0.1-0.5-0.2-0.8c-0.1-0.2-0.1-0.5-0.2-0.7c-0.1-0.2-0.1-0.5-0.2-0.7
		c-0.1-0.2-0.2-0.5-0.2-0.7c-0.1-0.2-0.2-0.5-0.2-0.7c-0.1-0.2-0.2-0.5-0.3-0.7c-0.1-0.2-0.2-0.5-0.3-0.7c-0.1-0.2-0.2-0.5-0.3-0.7
		c-0.1-0.2-0.2-0.4-0.3-0.7c-0.1-0.2-0.2-0.5-0.4-0.7c-0.1-0.2-0.2-0.4-0.3-0.6c-0.1-0.2-0.3-0.5-0.4-0.7c-0.1-0.2-0.2-0.4-0.4-0.6
		c-0.1-0.2-0.3-0.4-0.4-0.7c-0.1-0.2-0.3-0.4-0.4-0.6c-0.1-0.2-0.3-0.4-0.4-0.6c-0.1-0.2-0.3-0.4-0.4-0.6c-0.2-0.2-0.3-0.4-0.5-0.6
		c-0.1-0.2-0.3-0.4-0.4-0.6c-0.2-0.2-0.3-0.4-0.5-0.6c-0.2-0.2-0.3-0.4-0.5-0.5c-0.2-0.2-0.3-0.4-0.5-0.5c-0.2-0.2-0.3-0.4-0.5-0.5
		c-0.2-0.2-0.4-0.3-0.5-0.5c-0.2-0.2-0.4-0.3-0.5-0.5c-0.2-0.2-0.4-0.3-0.6-0.5c-0.2-0.2-0.4-0.3-0.6-0.5c-0.2-0.2-0.4-0.3-0.6-0.4
		c-0.2-0.2-0.4-0.3-0.6-0.5c-0.2-0.1-0.4-0.3-0.6-0.4c-0.2-0.1-0.4-0.3-0.6-0.4c-0.2-0.1-0.4-0.3-0.6-0.4c-0.2-0.1-0.4-0.3-0.7-0.4
		c-0.2-0.1-0.4-0.2-0.6-0.4c-0.2-0.1-0.5-0.3-0.7-0.4c-0.2-0.1-0.4-0.2-0.6-0.3c-0.2-0.1-0.5-0.2-0.7-0.4c-0.2-0.1-0.4-0.2-0.7-0.3
		c-0.2-0.1-0.5-0.2-0.7-0.3c-0.2-0.1-0.5-0.2-0.7-0.3c-0.2-0.1-0.5-0.2-0.7-0.3c-0.2-0.1-0.5-0.2-0.7-0.2c-0.2-0.1-0.5-0.2-0.7-0.2
		c-0.2-0.1-0.5-0.1-0.7-0.2c-0.2-0.1-0.5-0.1-0.7-0.2c-0.3-0.1-0.5-0.1-0.8-0.2c-0.2-0.1-0.5-0.1-0.7-0.2c-0.3-0.1-0.5-0.1-0.8-0.1
		c-0.2,0-0.5-0.1-0.7-0.1c-0.3,0-0.5-0.1-0.8-0.1c-0.2,0-0.5-0.1-0.7-0.1c-0.3,0-0.5,0-0.8-0.1c-0.3,0-0.5,0-0.8-0.1
		c-0.3,0-0.5,0-0.8,0c-0.2,0-0.5,0-0.7,0h0c0,0-0.1,0-0.1,0c0,0-0.1,0-0.1,0l-102.2,0.6c-17.1,0.1-30.9,14.1-30.8,31.2v0
		c0.1,17.1,14.1,30.9,31.2,30.8l71-0.4v357.9c0,17.1,13.9,31,31,31h0c17.1,0,31-13.9,31-31L304.4,518.7
		C304.4,518.7,304.4,518.7,304.4,518.7z"/>
	<path id="XMLID_17_" class="st9" d="M781.4,647l-70.3,0.4c-1.9-0.4-3.9-0.6-6-0.6h0c-17.1,0-31,13.9-31,31v230
		c0,17.1,13.9,31,31,31h0c17.1,0,31-13.9,31-31V709.2l45.7-0.3c17.1-0.1,30.9-14.1,30.8-31.2v0C812.5,660.7,798.5,646.9,781.4,647z"
		/>
	<path id="sea" class="st7" d="M981.6,999.6L18.7,1000c-10.1,0-18.4-8.2-18.4-18.4l0-69.5c0-14.7,16.4-23.5,28.6-15.3l0,0
		c20.5,13.8,47.2,13.8,67.7,0l18.4-12.4c6.2-4.2,14.3-4.2,20.5,0l18.4,12.4c20.5,13.8,47.2,13.8,67.7,0l18.4-12.4
		c6.2-4.2,14.3-4.2,20.5,0l18.4,12.4c20.5,13.8,47.2,13.8,67.7,0l18.4-12.4c6.2-4.2,14.3-4.2,20.5,0l18.4,12.4
		c20.5,13.8,47.2,13.8,67.7,0l18.4-12.4c6.2-4.2,14.3-4.2,20.5,0l18.4,12.4c20.5,13.8,47.2,13.8,67.7,0l18.4-12.4
		c6.2-4.2,14.3-4.2,20.5,0l18.4,12.4c20.5,13.8,47.2,13.8,67.7,0l18.4-12.4c6.2-4.2,14.3-4.2,20.5,0l18.4,12.4
		c20.5,13.8,47.2,13.8,67.7,0l18.4-12.4c6.2-4.2,14.3-4.2,20.5,0l18.4,12.4c20.5,13.8,47.2,13.8,67.7,0l0,0
		c12.2-8.2,28.6,0.5,28.6,15.2l0,69.1C1000,991.3,991.8,999.5,981.6,999.6z"/>
	<circle id="XMLID_15_" class="st0" cx="398.7" cy="757.8" r="9.4"/>
	<circle id="XMLID_10_" class="st0" cx="590" cy="757.8" r="9.4"/>
	<path id="XMLID_29_" class="st12" d="M549,801.1c0,11.7-23.6,18.1-52.6,18.1s-52.6-6.4-52.6-18.1s23.6-14.6,52.6-14.6
		S549,789.4,549,801.1z"/>
</g>
</svg>
