<?xml version="1.0" encoding="UTF-8"?>
<svg width="116px" height="19px" viewBox="0 0 116 19" version="1.1" xmlns="http://www.w3.org/2000/svg" xmlns:xlink="http://www.w3.org/1999/xlink">
    <!-- Generator: Sketch 41.2 (35397) - http://www.bohemiancoding.com/sketch -->
    <title>OCTOPUS</title>
    <desc>Created with Sketch.</desc>
    <defs></defs>
    <g id="Welcome" stroke="none" stroke-width="1" fill="none" fill-rule="evenodd">
        <g id="Artboard-6" transform="translate(-10.000000, -92.000000)" fill="#000000">
            <path d="M18.82,92.62 C13.9,92.62 10.74,96 10.74,101.28 C10.74,106.58 13.9,110 18.8,110 C23.66,110 26.88,106.5 26.88,101.22 C26.88,95.98 23.74,92.62 18.82,92.62 Z M18.82,106.54 C16.38,106.54 14.88,104.52 14.88,101.26 C14.88,98.04 16.38,96.06 18.82,96.06 C21.24,96.06 22.72,98.02 22.72,101.26 C22.72,104.54 21.24,106.54 18.82,106.54 Z M43.68,97.98 C43.42,96.8 43.08,96.06 42.44,95.24 C41.14,93.5 39.12,92.62 36.54,92.62 C34.2,92.62 32.18,93.36 30.8,94.7 C29.22,96.26 28.38,98.56 28.38,101.28 C28.38,103.96 29.22,106.3 30.7,107.8 C32.12,109.24 34.18,110 36.62,110 C39.04,110 40.98,109.24 42.22,107.82 C43.06,106.84 43.5,105.86 43.88,104.16 L39.72,103.54 C39.6,104.38 39.46,104.78 39.12,105.26 C38.54,106.06 37.6,106.52 36.5,106.52 C34.02,106.52 32.54,104.54 32.54,101.28 C32.54,97.98 33.96,96.06 36.4,96.06 C38.12,96.06 39.18,96.96 39.56,98.78 L43.68,97.98 Z M54.32,96.52 L56.58,96.52 C58.02,96.52 58.8,96.56 59.7,96.66 L59.7,92.84 C58.78,92.94 57.98,92.98 56.58,92.98 L47.82,92.98 C46.6,92.98 45.5,92.92 44.84,92.84 L44.84,96.66 C46.26,96.54 46.6,96.52 47.86,96.52 L50.22,96.52 L50.22,106.6 C50.22,107.86 50.18,108.68 50.06,109.62 L54.48,109.62 C54.36,108.68 54.32,107.8 54.32,106.6 L54.32,96.52 Z M68.82,92.62 C63.9,92.62 60.74,96 60.74,101.28 C60.74,106.58 63.9,110 68.8,110 C73.66,110 76.88,106.5 76.88,101.22 C76.88,95.98 73.74,92.62 68.82,92.62 Z M68.82,106.54 C66.38,106.54 64.88,104.52 64.88,101.26 C64.88,98.04 66.38,96.06 68.82,96.06 C71.24,96.06 72.72,98.02 72.72,101.26 C72.72,104.54 71.24,106.54 68.82,106.54 Z M83.18,109.62 C83.08,108.76 83.02,107.78 83.02,106.6 L83.02,104.04 L86.18,104.04 C90.06,104.04 92.34,101.92 92.34,98.36 C92.34,94.88 90.16,92.98 86.2,92.98 L81.82,92.98 C80.54,92.98 79.82,92.96 78.88,92.92 C79,93.86 79.04,94.76 79.04,95.84 L79.04,106.66 C79.04,107.84 79,108.74 78.88,109.62 L83.18,109.62 Z M83.02,100.64 L83.02,96.38 L86,96.38 C87.44,96.38 88.22,97.1 88.22,98.48 C88.22,99.86 87.4,100.64 86,100.64 L83.02,100.64 Z M105.12,92.98 C105.24,93.88 105.28,94.5 105.28,96 L105.28,102.88 C105.28,105.4 104.14,106.6 101.74,106.6 C99.4,106.6 98.26,105.4 98.26,102.88 L98.26,96 C98.26,94.52 98.3,93.72 98.42,92.98 L94.1,92.98 C94.22,93.74 94.26,94.62 94.26,96 L94.26,102.84 C94.26,105.08 94.86,106.82 96.02,108.06 C97.22,109.32 99.24,110.02 101.72,110.02 C106.54,110.02 109.28,107.44 109.28,102.88 L109.28,96 C109.28,94.56 109.32,93.84 109.44,92.98 L105.12,92.98 Z M111.38,104.6 C111.52,105.52 111.62,105.98 111.82,106.46 C112.24,107.6 112.98,108.46 113.98,109.02 C115.06,109.64 116.74,110 118.44,110 C120.78,110 122.54,109.42 123.7,108.3 C124.62,107.4 125.1,106.12 125.1,104.62 C125.1,102.78 124.38,101.44 122.94,100.54 C122.18,100.06 121.22,99.72 119.7,99.4 C117.34,98.92 117.34,98.92 116.94,98.74 C116.3,98.44 116,98.02 116,97.46 C116,96.54 116.9,95.88 118.12,95.88 C119.64,95.88 120.36,96.42 120.6,97.72 L124.84,97.26 C124.58,96.12 124.34,95.52 123.84,94.86 C122.76,93.36 120.82,92.58 118.28,92.58 C114.34,92.58 111.86,94.52 111.86,97.6 C111.86,99.22 112.54,100.56 113.8,101.44 C114.54,101.96 115.18,102.2 117.02,102.6 C119.1,103.08 119.6,103.22 120.02,103.42 C120.54,103.66 120.86,104.2 120.86,104.82 C120.86,105.94 119.94,106.62 118.4,106.62 C117.38,106.62 116.54,106.28 116.06,105.68 C115.76,105.28 115.62,104.92 115.54,104.2 L111.38,104.6 Z" id="OCTOPUS"></path>
        </g>
    </g>
</svg>